PathFileType	4	(X/Y/Z)	C:/Users/opensim2020/Desktop/walking_exp_matlab/subject03_walking15_straight_03.trc																																																																																																																																											
DataRate	CameraRate	NumFrames	NumMarkers	Units	OrigDataRate	OrigDataStartFrame	OrigNumFrames																																																																																																																																							
100	100	4	47	mm	100	1604	220																																																																																																																																							
Frame#	Time	LFHD			RFHD			LBHD			RBHD			C7			T10			CLAV			STRN			RBAK			LSHO			LUPA			LELB			LFRM			LWRA			LWRB			LFIN			RSHO			RUPA			RELB			RFRM			RWRA			RWRB			RFIN			LASI			RASI			LPSI			RPSI			LTHI			LKNE			LTIB			LANK			LHEE			LTOE			RTHI			RKNE			RTIB			RANK			RHEE			RTOE			*39			*40			*41			*42			*43			*44			*45			*46		
		X1	Y1	Z1	X2	Y2	Z2	X3	Y3	Z3	X4	Y4	Z4	X5	Y5	Z5	X6	Y6	Z6	X7	Y7	Z7	X8	Y8	Z8	X9	Y9	Z9	X10	Y10	Z10	X11	Y11	Z11	X12	Y12	Z12	X13	Y13	Z13	X14	Y14	Z14	X15	Y15	Z15	X16	Y16	Z16	X17	Y17	Z17	X18	Y18	Z18	X19	Y19	Z19	X20	Y20	Z20	X21	Y21	Z21	X22	Y22	Z22	X23	Y23	Z23	X24	Y24	Z24	X25	Y25	Z25	X26	Y26	Z26	X27	Y27	Z27	X28	Y28	Z28	X29	Y29	Z29	X30	Y30	Z30	X31	Y31	Z31	X32	Y32	Z32	X33	Y33	Z33	X34	Y34	Z34	X35	Y35	Z35	X36	Y36	Z36	X37	Y37	Z37	X38	Y38	Z38	X39	Y39	Z39	X40	Y40	Z40	X41	Y41	Z41	X42	Y42	Z42	X43	Y43	Z43	X44	Y44	Z44	X45	Y45	Z45	X46	Y46	Z46	X47	Y47	Z47
																																																																																																																																														
28	0.27	-1037.71301	1612.41211	1362.83972	-1027.94702	1615.74243	1494.90759	-1157.7262	1550.4552	1375.77734	-1143.15198	1553.92493	1505.8103	-1164.18982	1404.39453	1431.38818	-1229.90466	1102.97058	1441.51514	-1044.71545	1322.69373	1418.46094	-1019.40186	1151.97839	1408.87793	-1214.69666	1238.21106	1537.03943	-1103.24304	1364.86938	1267.45105	-1165.3634	1176.96448	1194.0907	-1193.46777	1058.44824	1174.78564	-1208.76746	929.50433	1161.46387	-1226.91431	807.71075	1179.15356	-1255.10791	827.34723	1133.71692	-1281.45337	743.72455	1141.14038	-1069.8772	1349.69031	1581.69189	-1069.88782	1133.0022	1663.10974	-1053.95642	1020.9165	1678.1947	-1031.44678	886.12225	1680.56042	-1001.93109	792.10675	1640.55139	-1025.15161	786.18481	1688.98938	-1001.95508	715.45471	1674.01831	-1097.94873	931.89056	1312.36353	-1081.922	914.34717	1542.58289	-1255.22668	963.50537	1368.84424	-1239.35876	964.89514	1518.81213	-1101.36011	636.27521	1265.37097	-1053.62817	469.62155	1312.46814	-1103.29382	274.34906	1324.73621	-1122.77893	69.12827	1380.58264	-1162.56958	36.53385	1423.75012	-972.74237	37.50879	1388.15344	-1178.15039	627.43274	1603.23682	-1193.29321	446.53217	1587.32227	-1345.09692	324.39771	1603.2804	-1504.89453	173.63547	1574.61267	-1555.04358	193.74632	1528.60168	-1467.04919	37.36097	1525.89978	NaN	NaN	NaN	NaN	NaN	NaN	NaN	NaN	NaN	NaN	NaN	NaN	NaN	NaN	NaN	NaN	NaN	NaN	NaN	NaN	NaN	NaN	NaN	NaN
29	0.28	-1027.89441	1613.42297	1361.83728	-1018.25153	1616.44031	1493.73413	-1147.91187	1551.41211	1374.54846	-1133.51611	1554.72571	1504.64258	-1154.79553	1405.02551	1429.30188	-1219.80408	1103.73254	1440.03088	-1034.80273	1323.72229	1417.47888	-1009.14063	1152.92114	1408.40308	-1205.46289	1239.26685	1535.14697	-1091.94531	1365.54797	1266.09375	-1151.55042	1176.7312	1193.08447	-1178.03955	1057.55212	1174.875	-1192.19324	928.30609	1162.72058	-1209.53186	806.5647	1181.69202	-1236.63245	825.24628	1135.61401	-1263.36804	741.64758	1143.99854	-1061.70911	1351.26965	1580.52014	-1063.4657	1134.36218	1662.00903	-1048.67883	1022.17914	1677.34863	-1027.9668	887.06213	1680.47778	-999.27972	792.33411	1641.43628	-1023.2453	787.04779	1689.64417	-1001.21509	715.65259	1675.55591	-1088.23254	932.7464	1311.05933	-1072.00623	915.46564	1541.38794	-1245.18835	964.44086	1368.24207	-1229.49194	965.40833	1518.15271	-1095.99756	635.7843	1264.89783	-1050.12585	468.90421	1312.07556	-1101.1405	274.12573	1324.2417	-1122.81958	69.08886	1380.41833	-1162.5498	36.12361	1423.54468	-972.80414	37.34668	1388.13977	-1160.67944	625.55792	1602.23975	-1170.65051	444.71017	1586.01672	-1322.41064	324.57132	1602.69922	-1487.17432	180.02869	1575.29639	-1537.45593	204.18991	1531.63184	-1458.08289	43.20548	1524.75879	NaN	NaN	NaN	NaN	NaN	NaN	NaN	NaN	NaN	NaN	NaN	NaN	NaN	NaN	NaN	NaN	NaN	NaN	NaN	NaN	NaN	NaN	NaN	NaN
30	0.29	-1018.08423	1614.52808	1360.83691	-1008.48535	1617.453	1492.89685	-1138.05591	1552.30383	1373.32007	-1123.84424	1555.55432	1503.45166	-1145.23718	1405.64209	1427.23877	-1209.80383	1104.53088	1438.75415	-1024.94482	1324.55908	1416.67798	-998.84467	1154.01941	1408.09668	-1196.38403	1240.23096	1533.12878	-1080.61243	1366.02783	1264.90723	-1137.36304	1176.15479	1192.11011	-1162.64172	1056.49976	1174.76135	-1175.17395	927.02289	1163.95569	-1192.55835	804.75543	1184.47705	-1217.81348	823.1571	1137.08044	-1244.07141	739.22925	1146.65381	-1053.37207	1352.67737	1579.55945	-1057.09985	1135.65393	1661.03845	-1043.48804	1023.3905	1676.62268	-1024.05847	887.78052	1680.81873	-996.56451	792.56799	1642.42053	-1021.24219	787.86066	1690.24414	-1000.53369	715.87152	1676.71521	-1078.45618	933.40906	1309.86169	-1063.0509	916.17786	1540.28186	-1235.21143	965.36652	1367.73254	-1219.82837	965.84253	1517.47583	-1091.67358	635.03864	1264.04919	-1046.52539	468.30136	1311.69275	-1099.12109	273.93036	1323.83301	-1122.875	69.05856	1380.18188	-1162.7428	36.1062	1423.14233	-972.92603	37.23518	1388.04346	-1143.74182	624.14813	1601.34375	-1147.60559	443.21262	1584.31177	-1298.74634	324.47119	1602.12231	-1468.79578	186.74924	1575.0249	-1519.00244	213.05809	1532.29993	-1443.61108	49.44943	1524.50183	NaN	NaN	NaN	NaN	NaN	NaN	NaN	NaN	NaN	NaN	NaN	NaN	NaN	NaN	NaN	NaN	NaN	NaN	NaN	NaN	NaN	NaN	NaN	NaN
31	0.3	-1008.37616	1615.53491	1359.76746	-998.88892	1618.50281	1491.75586	-1128.18506	1553.29639	1372.14758	-1114.16296	1556.47461	1502.26392	-1135.70642	1406.55139	1425.30396	-1199.96765	1105.51245	1437.62756	-1014.90277	1325.58228	1416.16492	-988.84918	1154.91833	1407.9176	-1187.50024	1241.23389	1530.94751	-1069.3075	1366.57751	1263.7384	-1123.20984	1175.58801	1191.15833	-1146.8634	1055.30444	1174.88708	-1157.62524	925.58459	1165.30957	-1173.71924	803.46997	1186.96936	-1197.9718	820.7049	1138.99097	-1223.83594	736.63843	1149.31165	-1044.80188	1353.92346	1578.74158	-1050.88379	1136.81152	1660.17249	-1038.46045	1024.48608	1676.07764	-1020.60278	888.64587	1680.97021	-993.70215	792.85364	1643.44543	-1019.1778	788.68457	1690.91187	-999.83142	716.23175	1677.97717	-1068.76135	933.88599	1308.82141	-1054.44397	916.70355	1539.58167	-1225.46338	966.39252	1367.11255	-1210.29626	966.10602	1516.80225	-1087.14307	634.84259	1263.62769	-1043.2981	467.51413	1311.31152	-1097.54053	273.88889	1323.53247	-1123.08215	69.02523	1380.00732	-1162.86926	36.01682	1423.08264	-973.12732	37.17759	1387.94727	-1126.85315	623.05646	1599.77197	-1124.17981	442.29086	1582.50903	-1274.23633	324.62076	1600.19385	-1449.50879	193.58075	1573.80188	-1500.03223	219.74405	1530.88757	-1425.16943	55.48458	1524.62939	NaN	NaN	NaN	NaN	NaN	NaN	NaN	NaN	NaN	NaN	NaN	NaN	NaN	NaN	NaN	NaN	NaN	NaN	NaN	NaN	NaN	NaN	NaN	NaN
